<?xml version="1.0" encoding="UTF-8"?>
<!DOCTYPE svg PUBLIC "-//W3C//DTD SVG 1.1//EN" "http://www.w3.org/Graphics/SVG/1.1/DTD/svg11.dtd">
<svg xmlns="http://www.w3.org/2000/svg" version="1.1" width="72px" height="36px" style="shape-rendering:geometricPrecision; text-rendering:geometricPrecision; image-rendering:optimizeQuality; fill-rule:evenodd; clip-rule:evenodd" xmlns:xlink="http://www.w3.org/1999/xlink">
<g><path style="opacity:0.809" fill="#111111" d="M 13.5,0.5 C 28.837,0.333412 44.1703,0.500079 59.5,1C 63.9529,2.10916 65.6195,4.94249 64.5,9.5C 66.1667,9.5 67.8333,9.5 69.5,9.5C 69.5,14.8333 69.5,20.1667 69.5,25.5C 68.1667,25.5 66.8333,25.5 65.5,25.5C 65.5,27.1667 65.5,28.8333 65.5,30.5C 66.8333,30.5 68.1667,30.5 69.5,30.5C 69.5,31.5 69.5,32.5 69.5,33.5C 67.549,33.7733 66.049,33.1066 65,31.5C 64.0975,32.7014 62.9308,33.5348 61.5,34C 42.8363,34.4999 24.1696,34.6666 5.5,34.5C 4.64407,30.4299 3.4774,26.4299 2,22.5C 1.50098,18.1794 1.33432,13.8461 1.5,9.5C 4.16667,9.5 6.83333,9.5 9.5,9.5C 8.98074,5.54746 10.3141,2.54746 13.5,0.5 Z"/></g>
<g><path style="opacity:1" fill="#f2f2f2" d="M 34.5,7.5 C 32.5,7.5 30.5,7.5 28.5,7.5C 28.5,10.5 28.5,13.5 28.5,16.5C 26.8333,16.5 25.1667,16.5 23.5,16.5C 23.5,13.5 23.5,10.5 23.5,7.5C 21.4727,7.33788 19.4727,7.50454 17.5,8C 20.9318,10.367 21.2652,13.0337 18.5,16C 13.5111,16.4993 8.51108,16.6659 3.5,16.5C 3.5,14.8333 3.5,13.1667 3.5,11.5C 6.8499,11.665 10.1832,11.4983 13.5,11C 11.0062,8.5769 11.0062,6.24357 13.5,4C 20.4921,3.50038 27.4921,3.33371 34.5,3.5C 34.5,4.83333 34.5,6.16667 34.5,7.5 Z"/></g>
<g><path style="opacity:1" fill="#f2f2f2" d="M 34.5,7.5 C 35.2485,6.46905 35.9152,5.30238 36.5,4C 39.146,3.50258 41.8127,3.33591 44.5,3.5C 45.7066,7.78621 46.7066,12.1195 47.5,16.5C 44.8597,16.4467 42.3597,15.78 40,14.5C 38.3333,15.1667 36.6667,15.8333 35,16.5C 34.1667,16.1667 33.3333,15.8333 32.5,15.5C 33.4822,12.9044 34.1489,10.2377 34.5,7.5 Z"/></g>
<g><path style="opacity:1" fill="#ececec" d="M 48.5,3.5 C 52.5138,3.33449 56.5138,3.50115 60.5,4C 63.1667,6.33333 63.1667,8.66667 60.5,11C 62.8098,11.4966 65.1432,11.6633 67.5,11.5C 67.5,13.1667 67.5,14.8333 67.5,16.5C 62.6386,17.2614 58.3052,16.2614 54.5,13.5C 53.6143,14.325 53.281,15.325 53.5,16.5C 51.8333,16.5 50.1667,16.5 48.5,16.5C 48.5,12.1667 48.5,7.83333 48.5,3.5 Z"/></g>
<g><path style="opacity:1" fill="#636363" d="M 39.5,8.5 C 41.332,9.14047 41.6653,10.1405 40.5,11.5C 39.6143,10.675 39.281,9.67504 39.5,8.5 Z"/></g>
<g><path style="opacity:1" fill="#afafaf" d="M 56.5,19.5 C 59.9619,18.5184 63.6286,18.185 67.5,18.5C 67.5,20.1667 67.5,21.8333 67.5,23.5C 65.5,23.5 63.5,23.5 61.5,23.5C 62.2921,22.4819 63.9588,22.1486 66.5,22.5C 66.5,21.5 66.5,20.5 66.5,19.5C 63.1667,19.5 59.8333,19.5 56.5,19.5 Z"/></g>
<g><path style="opacity:1" fill="#f0f0f0" d="M 3.5,18.5 C 5.5,18.5 7.5,18.5 9.5,18.5C 9.83333,22.5 10.1667,22.5 10.5,18.5C 14.8715,19.5376 19.2048,19.5376 23.5,18.5C 22.3397,22.4695 21.1731,26.4695 20,30.5C 18.3005,31.4061 16.4672,31.7394 14.5,31.5C 14.281,26.3706 13.6144,26.3706 12.5,31.5C 10.712,31.7852 9.04533,31.4519 7.5,30.5C 5.85766,26.5949 4.52432,22.5949 3.5,18.5 Z"/></g>
<g><path style="opacity:1" fill="#eeeeee" d="M 36.5,29.5 C 35.8166,31.1765 34.4832,31.8432 32.5,31.5C 29.3485,30.761 26.0151,30.761 22.5,31.5C 23.2934,27.1195 24.2934,22.7862 25.5,18.5C 28.1667,18.5 30.8333,18.5 33.5,18.5C 34.6988,22.0986 35.6988,25.7653 36.5,29.5 Z"/></g>
<g><path style="opacity:1" fill="#f3f3f3" d="M 56.5,19.5 C 59.8333,19.5 63.1667,19.5 66.5,19.5C 66.5,20.5 66.5,21.5 66.5,22.5C 63.9588,22.1486 62.2921,22.4819 61.5,23.5C 64.0858,26.006 64.0858,28.506 61.5,31C 56.5,31.6667 51.5,31.6667 46.5,31C 44.0301,27.5296 43.0301,28.0296 43.5,32.5C 41.8333,32.5 40.1667,32.5 38.5,32.5C 38.5,27.8333 38.5,23.1667 38.5,18.5C 42.5705,18.2338 46.5705,18.5672 50.5,19.5C 53.1667,21.8333 53.1667,24.1667 50.5,26.5C 52.7649,27.6474 55.0982,27.8141 57.5,27C 54.1107,24.6785 53.7774,22.1785 56.5,19.5 Z"/></g>
<g><path style="opacity:1" fill="#606060" d="M 43.5,22.5 C 44.9778,22.238 46.3112,22.5713 47.5,23.5C 46.8333,23.8333 46.1667,24.1667 45.5,24.5C 44.2867,24.2528 43.62,23.5862 43.5,22.5 Z"/></g>
<g><path style="opacity:1" fill="#535353" d="M 29.5,23.5 C 30.7759,24.3864 30.7759,25.3864 29.5,26.5C 28.4376,25.5754 28.4376,24.5754 29.5,23.5 Z"/></g>
<g><path style="opacity:1" fill="#777777" d="M 36.5,29.5 C 37.404,30.209 37.7373,31.209 37.5,32.5C 35.5853,32.7845 33.9187,32.4511 32.5,31.5C 34.4832,31.8432 35.8166,31.1765 36.5,29.5 Z"/></g>
</svg>
